<mxfile host="app.diagrams.net" modified="2024-04-04T08:44:36.850Z" agent="Mozilla/5.0 (Macintosh; Intel Mac OS X 10_15_7) AppleWebKit/537.36 (KHTML, like Gecko) Chrome/123.0.0.0 Safari/537.36" version="24.0.1" etag="mZBy2C9H8F8x17RC_5y2" type="github">
  <diagram name="Page-1" id="tIl8gSgta6vUrKM4jG2T">
    <mxGraphModel>
      <root>
        <mxCell id="0" />
        <mxCell id="1" parent="0" />
      </root>
    </mxGraphModel>
  </diagram>
</mxfile>
